<svg width="18" height="18" viewBox="0 0 18 18" fill="none" xmlns="http://www.w3.org/2000/svg">
<path d="M0.219704 17.7803C0.360423 17.921 0.551254 18 0.750231 18C0.949207 18 1.14004 17.921 1.28076 17.7803L9.00453 10.0565L16.7283 17.7803C16.8698 17.917 17.0594 17.9926 17.2561 17.9909C17.4529 17.9892 17.6411 17.9103 17.7802 17.7712C17.9193 17.632 17.9983 17.4438 18 17.2471C18.0017 17.0503 17.926 16.8608 17.7894 16.7192L10.0656 8.99547L17.7894 1.2717C17.926 1.13017 18.0017 0.940621 18 0.74387C17.9983 0.54712 17.9193 0.358913 17.7802 0.219784C17.6411 0.0806559 17.4529 0.00173807 17.2561 2.83667e-05C17.0594 -0.00168134 16.8698 0.0739539 16.7283 0.210644L9.00453 7.93442L1.28076 0.210644C1.13923 0.0739539 0.949681 -0.00168134 0.752931 2.83667e-05C0.556181 0.00173807 0.367974 0.0806559 0.228845 0.219784C0.0897166 0.358913 0.0107987 0.54712 0.00908904 0.74387C0.00737934 0.940621 0.0830145 1.13017 0.219704 1.2717L7.94348 8.99547L0.219704 16.7192C0.0790277 16.86 0 17.0508 0 17.2498C0 17.4487 0.0790277 17.6396 0.219704 17.7803Z" fill="#101618"/>
</svg>
