<svg width="34" height="34" viewBox="0 0 34 34" fill="none" xmlns="http://www.w3.org/2000/svg">
<path d="M20.2786 20.2786C17.6071 23.035 17.4129 26.4714 17.1821 34C24.2007 34 29.0457 33.9757 31.5471 31.5471C33.9757 29.0457 34 23.97 34 17.1821C26.4714 17.425 23.035 17.6071 20.2786 20.2786ZM0 17.1821C0 23.97 0.0242857 29.0457 2.45286 31.5471C4.95429 33.9757 9.79929 34 16.8179 34C16.575 26.4714 16.3929 23.035 13.7214 20.2786C10.965 17.6071 7.52857 17.4129 0 17.1821ZM16.8179 0C9.81143 0 4.95429 0.0242857 2.45286 2.45286C0.0242857 4.95429 0 10.03 0 16.8179C7.52857 16.575 10.965 16.3929 13.7214 13.7214C16.3929 10.965 16.5871 7.52857 16.8179 0ZM20.2786 13.7214C17.6071 10.965 17.4129 7.52857 17.1821 0C24.2007 0 29.0457 0.0242857 31.5471 2.45286C33.9757 4.95429 34 10.03 34 16.8179C26.4714 16.575 23.035 16.3929 20.2786 13.7214Z" fill="#101618"/>
</svg>
