<svg width="15" height="20" viewBox="0 0 15 20" fill="none" xmlns="http://www.w3.org/2000/svg">
<g clip-path="url(#clip0_1274_615)">
<path d="M3.15234 14.7188V11.2188H4.6257C4.9862 11.2188 5.27617 11.3217 5.4956 11.5197C5.71504 11.7255 5.82476 11.9948 5.82476 12.3353C5.82476 12.6758 5.71504 12.9529 5.4956 13.1509C5.27617 13.3568 4.9862 13.4597 4.6257 13.4597H4.03792V14.7188H3.15234ZM4.03792 12.6995H4.52382C4.65705 12.6995 4.75893 12.6679 4.82946 12.6045C4.90783 12.5412 4.93918 12.4541 4.93918 12.3353C4.93918 12.2244 4.90783 12.1373 4.82946 12.074C4.75893 12.0106 4.65705 11.9789 4.52382 11.9789H4.03792V12.6995ZM6.18526 14.7188V11.2188H7.41567C7.65861 11.2188 7.88589 11.2504 8.10532 11.3217C8.31692 11.393 8.50501 11.4959 8.67742 11.6305C8.84984 11.7731 8.98307 11.9552 9.08495 12.1848C9.18683 12.4065 9.23385 12.6758 9.23385 12.9688C9.23385 13.2697 9.18683 13.531 9.08495 13.7606C8.98307 13.9824 8.84984 14.1645 8.67742 14.307C8.50501 14.4416 8.31692 14.5446 8.10532 14.6158C7.88589 14.6871 7.65861 14.7188 7.41567 14.7188H6.18526ZM7.05517 13.9586H7.31379C7.45485 13.9586 7.58024 13.9428 7.6978 13.9111C7.81535 13.8794 7.92507 13.824 8.01911 13.7527C8.121 13.6814 8.19937 13.5785 8.26206 13.4439C8.31692 13.3093 8.34827 13.1509 8.34827 12.9688C8.34827 12.7866 8.31692 12.6283 8.26206 12.4936C8.19937 12.359 8.121 12.2561 8.01911 12.1848C7.92507 12.1136 7.81535 12.0581 7.6978 12.0265C7.58024 11.9948 7.45485 11.9789 7.31379 11.9789H7.05517V13.9586ZM9.68056 14.7188V11.2188H12.1414V11.9789H10.5661V12.5412H11.8279V13.3013H10.5661V14.7188H9.68056Z" fill="white"/>
<path fill-rule="evenodd" clip-rule="evenodd" d="M2.86834 0.0078125H9.38871L15 5.91511V17.0962C15 17.896 14.6787 18.6245 14.1536 19.1471C13.6364 19.6698 12.9232 19.9944 12.1317 19.9944H2.86834C2.0768 19.9944 1.36364 19.6698 0.838558 19.1471C0.321317 18.6245 0 17.896 0 17.0962V2.90603C0 2.10625 0.321317 1.38565 0.838558 0.855106C1.36364 0.332476 2.0768 0.0078125 2.86834 0.0078125ZM8.98119 0.815512V6.30312H14.1928V17.0962C14.1928 17.6743 13.9655 18.1969 13.5893 18.5691C13.2132 18.9492 12.6959 19.1867 12.1317 19.1867H2.86834C2.29624 19.1867 1.779 18.9492 1.41066 18.5691C1.03448 18.1969 0.799373 17.6743 0.799373 17.0962V2.90603C0.799373 2.32797 1.03448 1.80534 1.41066 1.43317C1.779 1.05307 2.29624 0.815512 2.86834 0.815512H8.98119Z" fill="white"/>
</g>
<defs>
<clipPath id="clip0_1274_615">
<rect width="15" height="20" fill="white"/>
</clipPath>
</defs>
</svg>
