<svg width="28" height="28" viewBox="0 0 28 28" fill="none" xmlns="http://www.w3.org/2000/svg">
<path d="M14 0C21.7323 0 28 6.26769 28 14C28 21.7323 21.7323 28 14 28C6.26769 28 -1.43051e-06 21.7323 -1.43051e-06 14C-1.43051e-06 6.26769 6.26769 0 14 0ZM14 26.9231C21.126 26.9231 26.9231 21.126 26.9231 14C26.9231 6.874 21.126 1.07692 14 1.07692C6.874 1.07692 1.07692 6.874 1.07692 14C1.07692 21.126 6.874 26.9231 14 26.9231Z" fill="#101618"/>
<path d="M16.5352 8.99576L11.5307 13.9991L16.5352 19.0025L15.7738 19.765L10.0079 13.9991L15.7738 8.23438L16.5352 8.99576Z" fill="#101618"/>
</svg>
