<svg width="28" height="28" viewBox="0 0 28 28" fill="none" xmlns="http://www.w3.org/2000/svg">
<path d="M28 14C28 21.7323 21.7323 28 14 28C6.26769 28 -1.90735e-06 21.7323 -1.90735e-06 14C-1.90735e-06 6.26769 6.26769 -1.90735e-06 14 -1.90735e-06C21.7323 -1.90735e-06 28 6.26769 28 14ZM1.07692 14C1.07692 21.126 6.874 26.9231 14 26.9231C21.126 26.9231 26.9231 21.126 26.9231 14C26.9231 6.874 21.126 1.07692 14 1.07692C6.874 1.07692 1.07692 6.874 1.07692 14Z" fill="#101618"/>
<path d="M19.0042 16.5312L14.0009 11.5268L8.99747 16.5312L8.23501 15.7699L14.0009 10.004L19.7656 15.7699L19.0042 16.5312Z" fill="#101618"/>
</svg>
