<svg width="28" height="28" viewBox="0 0 28 28" fill="none" xmlns="http://www.w3.org/2000/svg">
<path d="M14 0C6.26769 0 0 6.26769 0 14C0 21.7323 6.26769 28 14 28C21.7323 28 28 21.7323 28 14C28 6.26769 21.7323 0 14 0ZM14 26.9231C6.874 26.9231 1.07692 21.126 1.07692 14C1.07692 6.874 6.874 1.07692 14 1.07692C21.126 1.07692 26.9231 6.874 26.9231 14C26.9231 21.126 21.126 26.9231 14 26.9231Z" fill="#101618"/>
<path d="M11.4648 8.99576L16.4693 13.9991L11.4648 19.0025L12.2262 19.765L17.9921 13.9991L12.2262 8.23438L11.4648 8.99576Z" fill="#101618"/>
</svg>
