<svg width="34" height="34" viewBox="0 0 34 34" fill="none" xmlns="http://www.w3.org/2000/svg">
<g clip-path="url(#clip0_1274_600)">
<path d="M23.8254 12.0446L15.2037 19.0919L14.798 19.4241C14.7089 19.4948 14.6507 19.5973 14.6357 19.71L14.5449 20.4596L14.2957 22.5653C14.298 22.5909 14.2901 22.6164 14.2736 22.6361C14.2571 22.6559 14.2334 22.6682 14.2078 22.6706C14.1822 22.6729 14.1567 22.6649 14.137 22.6484C14.1172 22.6319 14.1048 22.6083 14.1025 22.5827L13.4013 20.477L12.6769 18.323C12.646 18.2265 12.6499 18.1222 12.688 18.0282C12.7262 17.9343 12.796 17.8568 12.8855 17.8091L21.8569 12.6666L23.5453 11.7007C23.7906 11.5578 24.0417 11.8669 23.8254 12.0446Z" fill="#66A4B1"/>
<path d="M29.3636 0H4.63636C3.40672 0 2.22745 0.488473 1.35796 1.35796C0.488473 2.22745 0 3.40672 0 4.63636L0 29.3636C0 30.5933 0.488473 31.7726 1.35796 32.642C2.22745 33.5115 3.40672 34 4.63636 34H29.3636C30.5933 34 31.7726 33.5115 32.642 32.642C33.5115 31.7726 34 30.5933 34 29.3636V4.63636C34 3.40672 33.5115 2.22745 32.642 1.35796C31.7726 0.488473 30.5933 0 29.3636 0ZM27.6037 9.84068L24.2849 24.5051C24.1284 25.1928 23.2552 25.5039 22.6428 25.0847L17.6317 21.6847L15.0798 24.0975C14.9757 24.1951 14.8494 24.2659 14.7118 24.3037C14.5742 24.3415 14.4295 24.3451 14.2901 24.3143C14.1508 24.2834 14.0211 24.2191 13.9123 24.1267C13.8035 24.0344 13.7188 23.917 13.6657 23.7845L12.7442 21.08L11.8227 18.3755L6.88307 17.0232C6.74496 16.993 6.62067 16.9181 6.52955 16.81C6.43842 16.7019 6.38555 16.5668 6.37916 16.4256C6.37277 16.2843 6.41322 16.145 6.49422 16.0291C6.57521 15.9132 6.69222 15.8274 6.82705 15.7849L25.9095 8.90954L26.2611 8.78398C27.001 8.52511 27.766 9.12398 27.6037 9.84068Z" fill="#66A4B1"/>
</g>
<defs>
<clipPath id="clip0_1274_600">
<rect width="34" height="34" fill="white"/>
</clipPath>
</defs>
</svg>
