<svg width="34" height="34" viewBox="0 0 34 34" fill="none" xmlns="http://www.w3.org/2000/svg">
<g clip-path="url(#clip0_1274_605)">
<path d="M30.3261 0H3.67394C1.64495 0 0 1.64495 0 3.67394V30.3261C0 32.355 1.64495 34 3.67394 34H30.3261C32.355 34 34 32.355 34 30.3261V3.67394C34 1.64495 32.355 0 30.3261 0ZM17.1094 26.6906H17.1055C15.4439 26.6899 13.8116 26.2734 12.3623 25.4828L7.0998 26.8631L8.50796 21.7193C7.63972 20.2143 7.18272 18.5063 7.18338 16.7572C7.18537 11.2845 11.638 6.83184 17.1094 6.83184C19.7646 6.8325 22.2572 7.86656 24.131 9.743C26.0048 11.6188 27.0362 14.1127 27.0355 16.7652C27.0335 22.238 22.5802 26.6906 17.1094 26.6906ZM17.1128 8.50796C12.562 8.50796 8.86083 12.2091 8.8595 16.7579C8.85884 18.3166 9.29462 19.8349 10.1204 21.1482L10.3167 21.4606L9.48299 24.5051L12.6057 23.6859L12.9069 23.8643C14.1737 24.6158 15.6257 25.0138 17.1061 25.0145H17.1094C21.6569 25.0145 25.3574 21.3133 25.3594 16.7645C25.3607 14.5598 24.5031 12.487 22.9457 10.9276C21.3876 9.36824 19.3162 8.50862 17.1128 8.50796ZM21.9654 20.3045C21.7591 20.8842 20.7681 21.4128 20.2912 21.4838C19.8641 21.5475 19.3235 21.5747 18.7292 21.3856C18.369 21.2716 17.9074 21.119 17.3157 20.863C14.8271 19.7891 13.2027 17.2839 13.0787 17.1181C12.9546 16.9529 12.0658 15.7736 12.0658 14.5525C12.0658 13.332 12.7066 12.7318 12.9341 12.4837C13.1609 12.235 13.4302 12.1733 13.5954 12.1733C13.7605 12.1733 13.9263 12.1746 14.0703 12.1819C14.2228 12.1899 14.4271 12.1242 14.6288 12.6077C14.835 13.1045 15.3312 14.325 15.3935 14.449C15.4552 14.573 15.4963 14.7183 15.4141 14.8835C15.3312 15.0493 15.29 15.1528 15.166 15.2973C15.042 15.4426 14.9053 15.621 14.7939 15.7318C14.6699 15.8558 14.5405 15.9898 14.6851 16.2379C14.8297 16.4866 15.3279 17.2985 16.0648 17.9565C17.0119 18.8015 17.8112 19.0635 18.0593 19.1875C18.3073 19.3115 18.4519 19.291 18.5965 19.1252C18.7411 18.96 19.2167 18.4009 19.3819 18.1528C19.5477 17.9047 19.7128 17.9458 19.9403 18.0288C20.1672 18.1117 21.387 18.7113 21.635 18.8353C21.8831 18.96 22.0483 19.0217 22.1099 19.1252C22.1723 19.2286 22.1723 19.7254 21.9654 20.3045Z" fill="#66A4B1"/>
</g>
<defs>
<clipPath id="clip0_1274_605">
<rect width="34" height="34" fill="white"/>
</clipPath>
</defs>
</svg>
