<svg width="34" height="34" viewBox="0 0 34 34" fill="none" xmlns="http://www.w3.org/2000/svg">
<rect width="33.7931" height="33.7931" rx="5" fill="#66A4B1"/>
<g clip-path="url(#clip0_1274_593)">
<path d="M15.1199 6.75781H13.9793L13.219 9.67247L12.4586 6.75781H11.1914C11.4449 7.51816 11.6983 8.15178 11.9518 8.91212C12.3319 9.92592 12.5854 10.813 12.5854 11.3199V14.3613H13.7259V11.3199L15.1199 6.75781ZM18.1612 12.4604V10.5595C18.1612 9.92592 18.0345 9.54574 17.7811 9.16557C17.5276 8.7854 17.1474 8.65867 16.6405 8.65867C16.1336 8.65867 15.7535 8.91212 15.5 9.2923C15.2466 9.54574 15.1199 9.92592 15.1199 10.5595V12.5871C15.1199 13.2207 15.2466 13.6009 15.5 13.8544C15.7535 14.2345 16.1336 14.3613 16.6405 14.3613C17.1474 14.3613 17.5276 14.1078 17.7811 13.7276C18.0345 13.6009 18.1612 13.094 18.1612 12.4604ZM17.1474 12.7138C17.1474 13.2207 17.0207 13.4742 16.6405 13.4742C16.2604 13.4742 16.1336 13.2207 16.1336 12.7138V10.3061C16.1336 9.79919 16.2604 9.54574 16.6405 9.54574C17.0207 9.54574 17.1474 9.79919 17.1474 10.3061V12.7138ZM21.963 14.3613V8.65867H20.9492V12.9673C20.6957 13.3475 20.569 13.4742 20.3155 13.4742C20.1888 13.4742 20.0621 13.3475 20.0621 13.2207C20.0621 13.2207 20.0621 13.094 20.0621 12.8406V8.65867H19.0483V13.094C19.0483 13.4742 19.0483 13.7276 19.175 13.9811C19.175 14.2345 19.4285 14.3613 19.8086 14.3613C20.1888 14.3613 20.569 14.1078 20.9492 13.7276V14.3613H21.963Z" fill="white"/>
<path d="M22.4717 20.0625C22.0916 20.0625 21.9648 20.3159 21.9648 20.8228V21.3297H22.9786V20.8228C22.9786 20.3159 22.8519 20.0625 22.4717 20.0625Z" fill="white"/>
<path d="M18.796 20.0625C18.6692 20.0625 18.4158 20.1892 18.2891 20.3159V23.7375C18.4158 23.8642 18.6692 23.9909 18.796 23.9909C19.0494 23.9909 19.1761 23.7375 19.1761 23.2306V20.8228C19.1761 20.3159 19.0494 20.0625 18.796 20.0625Z" fill="white"/>
<path d="M25.0054 17.2759C24.7519 16.3888 23.9916 15.6284 23.2312 15.6284C21.2037 15.375 19.0494 15.375 16.895 15.375C14.7407 15.375 12.7131 15.375 10.5588 15.6284C9.79849 15.6284 9.03815 16.3888 8.7847 17.2759C8.53125 18.5431 8.53125 19.9371 8.53125 21.2043C8.53125 22.4716 8.53125 23.8655 8.7847 25.1328C9.03815 26.0198 9.67177 26.6534 10.5588 26.7802C12.7131 27.0336 14.7407 27.0336 16.895 27.0336C19.0494 27.0336 21.0769 27.0336 23.2312 26.7802C24.1183 26.6534 24.8787 26.0198 25.0054 25.1328C25.2588 23.8655 25.2588 22.4716 25.2588 21.2043C25.2588 19.9371 25.2588 18.5431 25.0054 17.2759ZM13.3468 18.4164H12.0795V24.8793H10.939V18.4164H9.79849V17.2759H13.3468V18.4164ZM16.3881 24.8793H15.3744V24.2457C14.9942 24.7526 14.614 24.8793 14.2338 24.8793C13.8537 24.8793 13.7269 24.7526 13.6002 24.4991C13.6002 24.3724 13.4735 24.119 13.4735 23.6121V19.1767H14.4873V23.2319C14.4873 23.4853 14.4873 23.6121 14.4873 23.6121C14.4873 23.7388 14.614 23.8655 14.7407 23.8655C14.9942 23.8655 15.1209 23.7388 15.3744 23.3586V19.1767H16.3881V24.8793ZM20.1899 23.1052C20.1899 23.6121 20.1899 23.9922 20.0631 24.2457C19.9364 24.6259 19.683 24.8793 19.3028 24.8793C18.9226 24.8793 18.5425 24.6259 18.289 24.2457V24.7526H17.2752V17.2759H18.289V19.6836C18.6692 19.3034 18.9226 19.05 19.3028 19.05C19.683 19.05 19.9364 19.3034 20.0631 19.6836C20.1899 19.9371 20.1899 20.3172 20.1899 20.8241V23.1052ZM23.9916 22.2181H21.964V23.2319C21.964 23.7388 22.0907 23.9922 22.4709 23.9922C22.7244 23.9922 22.8511 23.8655 22.9778 23.6121C22.9778 23.6121 22.9778 23.3586 22.9778 22.9784H23.9916V23.1052C23.9916 23.4853 23.9916 23.6121 23.9916 23.7388C23.9916 23.9922 23.8649 24.119 23.7381 24.3724C23.4847 24.7526 23.1045 25.006 22.4709 25.006C21.964 25.006 21.5838 24.7526 21.2037 24.3724C20.9502 24.119 20.8235 23.6121 20.8235 23.1052V21.2043C20.8235 20.5707 20.9502 20.1905 21.0769 19.9371C21.3304 19.5569 21.7106 19.3034 22.3442 19.3034C22.8511 19.3034 23.2312 19.5569 23.4847 19.9371C23.7381 20.1905 23.7381 20.6974 23.7381 21.2043V22.2181H23.9916Z" fill="white"/>
</g>
<defs>
<clipPath id="clip0_1274_593">
<rect width="20.2759" height="20.2759" fill="white" transform="translate(6.75781 6.75781)"/>
</clipPath>
</defs>
</svg>
